<svg width="32" height="32" viewBox="0 0 32 32" fill="none" xmlns="http://www.w3.org/2000/svg">
<g clip-path="url(#clip0_103_4)">
<path d="M15.9818 2L31.9637 29.6813H0L15.9818 2Z" fill="#5C6B80"/>
<path d="M15.9819 8.8544L26.0276 26.2541H5.93622L15.9819 8.8544Z" fill="url(#paint0_linear_103_4)"/>
<path d="M17.5637 13.3361L17.27 21.5452H14.694L14.4002 13.3361H17.5637ZM15.9819 25.4632C15.5451 25.4632 15.1704 25.3057 14.8578 24.9909C14.549 24.6722 14.3964 24.2855 14.4002 23.8307C14.3964 23.3876 14.549 23.0086 14.8578 22.6938C15.1704 22.3789 15.5451 22.2215 15.9819 22.2215C16.3962 22.2215 16.7615 22.3789 17.0779 22.6938C17.398 23.0086 17.5599 23.3876 17.5637 23.8307C17.5599 24.1339 17.4827 24.4098 17.3321 24.6586C17.1852 24.9035 16.9931 25.0997 16.7559 25.2475C16.5186 25.3913 16.2606 25.4632 15.9819 25.4632Z" fill="#2C323F"/>
</g>
<defs>
<linearGradient id="paint0_linear_103_4" x1="15.9819" y1="8.8544" x2="15.9819" y2="32.054" gradientUnits="userSpaceOnUse">
<stop offset="0.166667" stop-color="#F18B37"/>
<stop offset="0.755208" stop-color="#EB6E2D"/>
<stop offset="1" stop-color="#E44F22"/>
</linearGradient>
<clipPath id="clip0_103_4">
<rect width="32" height="32" fill="white"/>
</clipPath>
</defs>
</svg>
